<?xml version="1.0" standalone="no"?><!DOCTYPE svg PUBLIC "-//W3C//DTD SVG 1.1//EN" "http://www.w3.org/Graphics/SVG/1.1/DTD/svg11.dtd"><svg t="1762266264073" class="icon" viewBox="0 0 1024 1024" version="1.1" xmlns="http://www.w3.org/2000/svg" p-id="1611" xmlns:xlink="http://www.w3.org/1999/xlink" width="200" height="200"><path d="M757.001481 56.888889H266.998519a136.912593 136.912593 0 0 0-136.533334 136.533333v637.155556c0 75.472593 61.44 136.533333 136.533334 136.533333h333.368888c35.422815 0 67.887407-12.629333 94.814815-38.684444l157.771852-155.875556a137.784889 137.784889 0 0 0 40.580741-96.711111V193.422222c0-75.093333-61.44-136.533333-136.533334-136.533333z m-291.043555 346.718815a75.358815 75.358815 0 0 1-25.713778-56.50963 75.851852 75.851852 0 1 1 151.703704 0c0 22.603852-10.05037 42.628741-25.675852 56.50963a151.817481 151.817481 0 0 1 97.052444 107.254518c4.171852 17.21837-10.126222 33.526519-27.837629 33.526519H396.705185c-17.749333 0-32.009481-16.308148-27.837629-33.526519a151.817481 151.817481 0 0 1 97.052444-107.254518z m171.652741 329.879703h-251.221334a37.925926 37.925926 0 0 1 0-75.851851h251.221334a37.925926 37.925926 0 0 1 0 75.851851z" p-id="1612"></path></svg>